<svg version="1" xmlns="http://www.w3.org/2000/svg" width="346.667" height="346.667" viewBox="0 0 260.000000 260.000000"><path d="M56.1 48.2c-21.6 2.5-40 15.1-43.8 30.1-.3 1.2-.7 5.3-.9 9-.6 11.9 4.6 22.4 14.9 30 4.8 3.6 17.6 9.1 23.2 10 5.8 1 25.9 5.7 32.9 7.8 12.3 3.7 19.2 7.4 25.5 13.7 7.9 7.8 10 15.2 7.6 25.8-3.6 15.8-18.9 27.8-38.4 30.1-21.1 2.6-34.8-1.4-60-17.7-6.2-3.9-11.5-6.9-11.8-6.7-.9 1 5.6 9.5 10.4 13.6 7.3 6.2 22.8 13.4 33.8 15.7 9.9 2.1 24.4 2.3 32.8.4 11.8-2.6 22.6-8.2 29.9-15.5 11.3-11.1 13.7-32.2 5.3-45.5-6.4-10.1-18.5-16-48.1-23.3-24.2-6-34.8-9.9-41.8-15.4-8.7-6.8-12.5-19.4-9.2-30.8 2.3-7.8 9.8-15.3 19.8-20 9.3-4.3 15.7-5.4 28.8-5.1 12.1.3 18.4 2.2 38.6 11.3 6.9 3 12.7 5.3 13 5 .3-.2-1.7-2.7-4.4-5.5-11.4-11.7-37.6-19.4-58.1-17zM155.9 47.7c-1 .2-1.9 1.8-2.2 3.6-.3 1.8-.5 38.4-.5 81.4.1 73.5.2 78.2 1.8 78.6 4.4 1.1 4.3 2.9 4.4-79.5l.1-78.3 6.8-.3 6.7-.4v79c0 43.4.2 79.1.5 79.4.3.3 1.7.3 3 0l2.5-.4V143h36.5l1.7 3.8c1 2 4.8 10 8.4 17.7 13.2 27.8 16.2 34.3 18.9 40.4 2.8 6.2 4.4 7.2 8.9 5.5 1.4-.6 1.3-1.2-1.1-5.3-4.1-7.1-15.1-29.6-24.3-49.9-5.6-12.2-8.8-18.2-9.9-18.3-.9-.1-9.9-.2-20.1-.3l-18.5-.1.2-6c.1-3.3.2-6.7.2-7.5.1-1.4 2.6-1.6 17.9-1.6 25.2 0 30.8-1 38.6-6.3 10.2-7 15.6-17 16.2-29.9.6-13.1-6-25.8-16.4-31.9-9.2-5.4-14.7-6.1-48.2-6-16.8 0-31.2.2-32.1.4zm59.6 5.7c13.8 1.2 23 6.9 28.2 17.4 5.5 11.2 3 26-5.9 35.3-3.3 3.5-10.8 8.1-12.5 7.7-.5-.1-2.5.2-4.5.6-2 .5-12.3.9-22.7 1l-19.1.1V53.1l14.3-.3c7.8-.2 14.7-.2 15.2-.1.6.1 3.7.4 7 .7z"/></svg>